<mxfile host="app.diagrams.net" modified="2022-03-08T05:38:08.027Z" agent="5.0 (Windows NT 10.0; Win64; x64) AppleWebKit/537.36 (KHTML, like Gecko) Chrome/99.0.4844.51 Safari/537.36" etag="oMQtMTIu5AFLyYQDIfKf" version="16.6.6" type="github">
  <diagram id="E_8djGLTP-sTV0AnYtnJ" name="Page-1">
    <mxGraphModel dx="1038" dy="1685" grid="1" gridSize="10" guides="1" tooltips="1" connect="1" arrows="1" fold="1" page="1" pageScale="1" pageWidth="850" pageHeight="1100" math="0" shadow="0">
      <root>
        <mxCell id="0" />
        <mxCell id="1" parent="0" />
        <mxCell id="9qPXkkcJqhiHrvx8rgAP-5" value="" style="edgeStyle=orthogonalEdgeStyle;rounded=0;orthogonalLoop=1;jettySize=auto;html=1;fontFamily=Times New Roman;fontSize=20;" edge="1" parent="1" source="9qPXkkcJqhiHrvx8rgAP-1" target="9qPXkkcJqhiHrvx8rgAP-4">
          <mxGeometry relative="1" as="geometry">
            <Array as="points">
              <mxPoint x="580" y="-360" />
              <mxPoint x="950" y="-360" />
            </Array>
          </mxGeometry>
        </mxCell>
        <mxCell id="9qPXkkcJqhiHrvx8rgAP-7" value="" style="edgeStyle=orthogonalEdgeStyle;rounded=0;orthogonalLoop=1;jettySize=auto;html=1;fontFamily=Times New Roman;fontSize=12;" edge="1" parent="1" source="9qPXkkcJqhiHrvx8rgAP-1" target="9qPXkkcJqhiHrvx8rgAP-6">
          <mxGeometry relative="1" as="geometry">
            <Array as="points">
              <mxPoint x="580" y="-380" />
              <mxPoint x="580" y="-380" />
            </Array>
          </mxGeometry>
        </mxCell>
        <mxCell id="9qPXkkcJqhiHrvx8rgAP-21" value="" style="edgeStyle=orthogonalEdgeStyle;rounded=0;orthogonalLoop=1;jettySize=auto;html=1;fontFamily=Times New Roman;fontSize=12;" edge="1" parent="1" source="9qPXkkcJqhiHrvx8rgAP-1" target="9qPXkkcJqhiHrvx8rgAP-20">
          <mxGeometry relative="1" as="geometry">
            <Array as="points">
              <mxPoint x="580" y="-360" />
              <mxPoint x="400" y="-360" />
            </Array>
          </mxGeometry>
        </mxCell>
        <mxCell id="9qPXkkcJqhiHrvx8rgAP-1" value="Mulai" style="strokeWidth=2;html=1;shape=mxgraph.flowchart.terminator;whiteSpace=wrap;fontFamily=Times New Roman;fontSize=20;" vertex="1" parent="1">
          <mxGeometry x="530" y="-470" width="130" height="60" as="geometry" />
        </mxCell>
        <mxCell id="9qPXkkcJqhiHrvx8rgAP-32" value="" style="edgeStyle=orthogonalEdgeStyle;rounded=0;orthogonalLoop=1;jettySize=auto;html=1;fontFamily=Times New Roman;fontSize=12;" edge="1" parent="1" source="9qPXkkcJqhiHrvx8rgAP-4" target="9qPXkkcJqhiHrvx8rgAP-31">
          <mxGeometry relative="1" as="geometry" />
        </mxCell>
        <mxCell id="9qPXkkcJqhiHrvx8rgAP-4" value="Membuat basis data" style="whiteSpace=wrap;html=1;fontSize=12;fontFamily=Times New Roman;strokeWidth=2;" vertex="1" parent="1">
          <mxGeometry x="890" y="-320" width="120" height="40" as="geometry" />
        </mxCell>
        <mxCell id="9qPXkkcJqhiHrvx8rgAP-9" value="" style="edgeStyle=orthogonalEdgeStyle;rounded=0;orthogonalLoop=1;jettySize=auto;html=1;fontFamily=Times New Roman;fontSize=12;" edge="1" parent="1" source="9qPXkkcJqhiHrvx8rgAP-6" target="9qPXkkcJqhiHrvx8rgAP-8">
          <mxGeometry relative="1" as="geometry">
            <Array as="points">
              <mxPoint x="580" y="-60" />
            </Array>
          </mxGeometry>
        </mxCell>
        <mxCell id="9qPXkkcJqhiHrvx8rgAP-11" value="" style="edgeStyle=orthogonalEdgeStyle;rounded=0;orthogonalLoop=1;jettySize=auto;html=1;fontFamily=Times New Roman;fontSize=12;" edge="1" parent="1" source="9qPXkkcJqhiHrvx8rgAP-6" target="9qPXkkcJqhiHrvx8rgAP-10">
          <mxGeometry relative="1" as="geometry">
            <Array as="points">
              <mxPoint x="580" y="-220" />
            </Array>
          </mxGeometry>
        </mxCell>
        <mxCell id="9qPXkkcJqhiHrvx8rgAP-24" style="edgeStyle=orthogonalEdgeStyle;rounded=0;orthogonalLoop=1;jettySize=auto;html=1;fontFamily=Times New Roman;fontSize=12;" edge="1" parent="1" source="9qPXkkcJqhiHrvx8rgAP-6" target="9qPXkkcJqhiHrvx8rgAP-22">
          <mxGeometry relative="1" as="geometry">
            <Array as="points">
              <mxPoint x="580" y="-100" />
              <mxPoint x="580" y="-100" />
            </Array>
          </mxGeometry>
        </mxCell>
        <mxCell id="9qPXkkcJqhiHrvx8rgAP-6" value="&lt;font style=&quot;font-size: 12px&quot;&gt;Membuat lingkungan pengembangan&lt;/font&gt;" style="whiteSpace=wrap;html=1;fontSize=12;fontFamily=Times New Roman;strokeWidth=2;horizontal=1;" vertex="1" parent="1">
          <mxGeometry x="520" y="-320" width="120" height="40" as="geometry" />
        </mxCell>
        <mxCell id="9qPXkkcJqhiHrvx8rgAP-25" style="edgeStyle=orthogonalEdgeStyle;rounded=0;orthogonalLoop=1;jettySize=auto;html=1;fontFamily=Times New Roman;fontSize=12;" edge="1" parent="1" source="9qPXkkcJqhiHrvx8rgAP-8" target="9qPXkkcJqhiHrvx8rgAP-16">
          <mxGeometry relative="1" as="geometry" />
        </mxCell>
        <mxCell id="9qPXkkcJqhiHrvx8rgAP-8" value="Membuat repository Git dan GitHub" style="whiteSpace=wrap;html=1;fontFamily=Times New Roman;strokeWidth=2;" vertex="1" parent="1">
          <mxGeometry x="640" y="-80" width="160" height="40" as="geometry" />
        </mxCell>
        <mxCell id="9qPXkkcJqhiHrvx8rgAP-13" value="" style="edgeStyle=orthogonalEdgeStyle;rounded=0;orthogonalLoop=1;jettySize=auto;html=1;fontFamily=Times New Roman;fontSize=12;" edge="1" parent="1" source="9qPXkkcJqhiHrvx8rgAP-10" target="9qPXkkcJqhiHrvx8rgAP-12">
          <mxGeometry relative="1" as="geometry" />
        </mxCell>
        <mxCell id="9qPXkkcJqhiHrvx8rgAP-10" value="Membuat environment Python" style="whiteSpace=wrap;html=1;fontFamily=Times New Roman;strokeWidth=2;" vertex="1" parent="1">
          <mxGeometry x="640" y="-240" width="120" height="40" as="geometry" />
        </mxCell>
        <mxCell id="9qPXkkcJqhiHrvx8rgAP-12" value="Instalasi library beserta dependencies" style="whiteSpace=wrap;html=1;fontFamily=Times New Roman;strokeWidth=2;" vertex="1" parent="1">
          <mxGeometry x="640" y="-160" width="120" height="40" as="geometry" />
        </mxCell>
        <mxCell id="9qPXkkcJqhiHrvx8rgAP-16" value="Sinkronisasi Git dengan Integrated Development Environment (IDE)" style="whiteSpace=wrap;html=1;fontFamily=Times New Roman;strokeWidth=2;" vertex="1" parent="1">
          <mxGeometry x="620" width="200" height="40" as="geometry" />
        </mxCell>
        <mxCell id="9qPXkkcJqhiHrvx8rgAP-28" value="" style="edgeStyle=orthogonalEdgeStyle;rounded=0;orthogonalLoop=1;jettySize=auto;html=1;fontFamily=Times New Roman;fontSize=12;" edge="1" parent="1" source="9qPXkkcJqhiHrvx8rgAP-20" target="9qPXkkcJqhiHrvx8rgAP-27">
          <mxGeometry relative="1" as="geometry" />
        </mxCell>
        <mxCell id="9qPXkkcJqhiHrvx8rgAP-20" value="Membuat sistem sisi pengguna (Client Side)" style="whiteSpace=wrap;html=1;fontSize=12;fontFamily=Times New Roman;strokeWidth=2;" vertex="1" parent="1">
          <mxGeometry x="340" y="-320" width="120" height="40" as="geometry" />
        </mxCell>
        <mxCell id="9qPXkkcJqhiHrvx8rgAP-22" value="Membuat sistem sisi server (Server Side)" style="whiteSpace=wrap;html=1;fontSize=12;fontFamily=Times New Roman;strokeWidth=2;" vertex="1" parent="1">
          <mxGeometry x="520" y="80" width="120" height="40" as="geometry" />
        </mxCell>
        <mxCell id="9qPXkkcJqhiHrvx8rgAP-30" value="" style="edgeStyle=orthogonalEdgeStyle;rounded=0;orthogonalLoop=1;jettySize=auto;html=1;fontFamily=Times New Roman;fontSize=12;" edge="1" parent="1" source="9qPXkkcJqhiHrvx8rgAP-27" target="9qPXkkcJqhiHrvx8rgAP-29">
          <mxGeometry relative="1" as="geometry" />
        </mxCell>
        <mxCell id="9qPXkkcJqhiHrvx8rgAP-27" value="Membuat layout halaman (header, isi, footer)" style="whiteSpace=wrap;html=1;fontFamily=Times New Roman;strokeWidth=2;" vertex="1" parent="1">
          <mxGeometry x="320" y="-240" width="160" height="40" as="geometry" />
        </mxCell>
        <mxCell id="9qPXkkcJqhiHrvx8rgAP-29" value="Membuat widget visualisasi intensitas gempa" style="whiteSpace=wrap;html=1;fontFamily=Times New Roman;strokeWidth=2;" vertex="1" parent="1">
          <mxGeometry x="320" y="-160" width="160" height="40" as="geometry" />
        </mxCell>
        <mxCell id="9qPXkkcJqhiHrvx8rgAP-34" value="" style="edgeStyle=orthogonalEdgeStyle;rounded=0;orthogonalLoop=1;jettySize=auto;html=1;fontFamily=Times New Roman;fontSize=12;" edge="1" parent="1" source="9qPXkkcJqhiHrvx8rgAP-31" target="9qPXkkcJqhiHrvx8rgAP-33">
          <mxGeometry relative="1" as="geometry" />
        </mxCell>
        <mxCell id="9qPXkkcJqhiHrvx8rgAP-31" value="Persiapan data (pembersihan, seleksi data, reformating )" style="whiteSpace=wrap;html=1;fontFamily=Times New Roman;strokeWidth=2;" vertex="1" parent="1">
          <mxGeometry x="870" y="-240" width="160" height="40" as="geometry" />
        </mxCell>
        <mxCell id="9qPXkkcJqhiHrvx8rgAP-33" value="Pembuatan tabel dalam basis data" style="whiteSpace=wrap;html=1;fontFamily=Times New Roman;strokeWidth=2;" vertex="1" parent="1">
          <mxGeometry x="890" y="-160" width="120" height="40" as="geometry" />
        </mxCell>
      </root>
    </mxGraphModel>
  </diagram>
</mxfile>
